<svg width="334" height="332" viewBox="0 0 334 332" fill="none" xmlns="http://www.w3.org/2000/svg">
<rect width="334" height="332" fill="#F5C58B"/>
<path d="M227.086 84.0275C227.108 83.7305 227.119 83.4347 227.119 83.1401C227.118 80.0052 225.897 76.9886 223.704 74.7044C221.511 72.4202 218.512 71.0402 215.317 70.8453C213.764 66.8408 211.071 63.356 207.558 60.8038C204.045 58.2517 199.858 56.7391 195.494 56.4453C191.129 56.1516 186.77 57.0889 182.933 59.1463C179.097 61.2037 175.942 64.2949 173.844 68.0537C173.171 67.9778 172.493 67.939 171.815 67.9376C169.102 67.929 166.42 68.5103 163.964 69.6397C161.508 70.7691 159.339 72.4183 157.613 74.4684C157.333 74.8017 157.159 75.2082 157.113 75.6376C157.066 76.067 157.15 76.5002 157.353 76.8834C157.556 77.2666 157.87 77.583 158.255 77.7932C158.64 78.0033 159.08 78.0981 159.519 78.0656C159.757 78.0484 160.011 78.0495 160.25 78.0506C165.871 78.0621 171.371 79.6554 176.094 82.6408C180.817 85.6261 184.564 89.8778 186.889 94.8893C187.1 95.3453 187.463 95.7171 187.919 95.9438C188.375 96.1704 188.896 96.2382 189.397 96.1361C193.335 95.3358 197.421 95.582 201.229 96.8492C205.037 98.1163 208.43 100.358 211.055 103.343C211.266 103.584 211.529 103.779 211.824 103.912C212.119 104.045 212.44 104.114 212.765 104.114H230.653C231.046 104.114 231.432 104.013 231.772 103.822C232.113 103.63 232.397 103.355 232.595 103.023C233.841 100.934 234.499 98.5578 234.5 96.1383C234.489 93.6538 233.795 91.218 232.49 89.087C231.186 86.9559 229.319 85.2082 227.086 84.0275Z" fill="#7CC9F2"/>
<path d="M220.948 116.065C220.519 109.352 217.493 103.051 212.487 98.4444C207.48 93.838 200.87 91.2723 194 91.2693C192.736 91.2692 191.474 91.3548 190.222 91.5253C187.373 86.1462 183.073 81.6349 177.789 78.4823C172.504 75.3296 166.438 73.6562 160.25 73.6443C159.903 73.6443 159.528 73.6465 159.289 73.6663C152.472 73.8349 145.87 76.031 140.359 79.9627C134.848 83.8944 130.69 89.3754 128.438 95.6771C123.72 95.7628 119.225 97.6566 115.918 100.952C112.611 104.247 110.755 108.681 110.75 113.301C110.75 113.975 110.791 114.649 110.871 115.319C107.473 116.96 104.609 119.496 102.601 122.642C100.593 125.787 99.5187 129.419 99.5 133.129C99.4921 136.619 100.439 140.049 102.242 143.06C102.441 143.39 102.724 143.664 103.064 143.854C103.404 144.044 103.789 144.144 104.18 144.144H129.56C130.096 144.144 130.614 143.957 131.022 143.616C131.429 143.275 131.699 142.803 131.783 142.284C132.432 138.27 134.523 134.615 137.679 131.975C140.835 129.336 144.85 127.886 149 127.886C153.151 127.886 157.165 129.336 160.322 131.975C163.478 134.615 165.569 138.27 166.218 142.284C166.301 142.803 166.571 143.275 166.979 143.616C167.386 143.957 167.904 144.144 168.44 144.144H229.415C229.777 144.144 230.134 144.059 230.455 143.895C230.776 143.732 231.052 143.494 231.259 143.204C233.374 140.253 234.506 136.734 234.5 133.129C234.485 129.218 233.147 125.422 230.695 122.335C228.243 119.247 224.816 117.043 220.948 116.065Z" fill="#9CD5F2"/>
<path d="M170.908 143.891C170.866 143.123 170.784 142.358 170.663 141.598C169.846 136.547 167.215 131.946 163.244 128.625C159.272 125.304 154.22 123.479 148.997 123.48C143.774 123.48 138.723 125.306 134.752 128.629C130.781 131.951 128.151 136.552 127.336 141.604C127.216 142.361 127.134 143.125 127.092 143.891C123.624 145.117 120.627 147.361 118.507 150.315C116.388 153.27 115.251 156.793 115.25 160.403C115.25 160.987 115.487 161.548 115.909 161.961C116.331 162.374 116.903 162.606 117.5 162.606H180.5C181.097 162.606 181.669 162.374 182.091 161.961C182.513 161.548 182.75 160.987 182.75 160.403C182.749 156.793 181.612 153.27 179.493 150.315C177.373 147.361 174.376 145.117 170.908 143.891Z" fill="#B2EBF2"/>
<path d="M220.948 116.065C220.681 111.841 219.379 107.742 217.154 104.114H230.653C231.045 104.114 231.431 104.013 231.772 103.822C232.113 103.63 232.397 103.355 232.595 103.023C233.841 100.934 234.499 98.5579 234.5 96.1383C234.489 93.6538 233.795 91.218 232.49 89.087C231.186 86.9559 229.319 85.2082 227.086 84.0275C227.108 83.7305 227.119 83.4347 227.119 83.1401C227.118 80.0052 225.897 76.9886 223.704 74.7044C221.512 72.4202 218.512 71.0402 215.317 70.8453C213.764 66.8408 211.071 63.356 207.558 60.8038C204.045 58.2517 199.858 56.7391 195.494 56.4453C191.129 56.1516 186.77 57.0889 182.934 59.1463C179.097 61.2037 175.942 64.2949 173.844 68.0537C173.171 67.9778 172.493 67.939 171.815 67.9376C169.277 67.9339 166.765 68.4469 164.44 69.4441C162.115 70.4413 160.027 71.9008 158.308 73.7301C151.669 74.08 145.286 76.3528 139.968 80.2603C134.65 84.1678 130.637 89.5339 128.438 95.6778C123.721 95.7636 119.226 97.6573 115.918 100.952C112.611 104.247 110.756 108.681 110.75 113.301C110.75 113.975 110.791 114.649 110.871 115.319C107.473 116.96 104.609 119.496 102.601 122.642C100.593 125.788 99.5187 129.419 99.5 133.129C99.4921 136.62 100.439 140.049 102.242 143.06C102.441 143.39 102.724 143.664 103.064 143.854C103.404 144.045 103.789 144.145 104.18 144.144H126.518C123.197 145.443 120.348 147.685 118.34 150.583C116.331 153.481 115.255 156.901 115.25 160.403C115.25 160.988 115.487 161.548 115.909 161.961C116.331 162.374 116.903 162.606 117.5 162.606H180.5C181.097 162.606 181.669 162.374 182.091 161.961C182.513 161.548 182.75 160.988 182.75 160.403C182.745 156.901 181.669 153.481 179.66 150.583C177.652 147.685 174.803 145.443 171.482 144.144H229.415C229.777 144.144 230.134 144.059 230.454 143.895C230.775 143.732 231.051 143.494 231.259 143.204C233.373 140.253 234.505 136.734 234.5 133.129C234.485 129.218 233.147 125.422 230.695 122.335C228.243 119.248 224.816 117.043 220.948 116.065ZM171.815 72.3439C172.783 72.352 173.748 72.4496 174.697 72.6354C175.193 72.7281 175.707 72.6551 176.155 72.4281C176.604 72.201 176.962 71.833 177.172 71.3831C178.718 68.0376 181.271 65.2349 184.49 63.3512C187.709 61.4674 191.44 60.5925 195.181 60.844C198.922 61.0955 202.495 62.4613 205.421 64.7581C208.347 67.055 210.486 70.173 211.55 73.694C211.692 74.1818 212.004 74.6057 212.432 74.8928C212.859 75.1798 213.375 75.312 213.891 75.2665C214.104 75.2505 214.334 75.23 214.565 75.23C216.703 75.2354 218.752 76.0711 220.262 77.5539C221.772 79.0366 222.62 81.0452 222.62 83.1392C222.618 83.7213 222.553 84.3015 222.425 84.87C222.309 85.3864 222.387 85.9264 222.645 86.3913C222.902 86.8561 223.321 87.215 223.826 87.4022C225.635 88.0786 227.193 89.275 228.295 90.8341C229.397 92.3932 229.991 94.2423 230 96.1383C230 97.3639 229.75 98.5771 229.266 99.7074H213.774C213.542 99.4613 213.284 99.2458 213.043 99.0096C212.738 98.7107 212.435 98.4102 212.117 98.127C211.73 97.7827 211.328 97.4621 210.923 97.1418C210.591 96.879 210.263 96.6131 209.919 96.3657C209.498 96.0638 209.06 95.7891 208.623 95.5126C208.269 95.2885 207.921 95.057 207.556 94.8499C207.101 94.5906 206.63 94.3628 206.16 94.1306C205.79 93.9479 205.428 93.7543 205.05 93.5886C204.558 93.3727 204.051 93.1921 203.547 93.0059C203.171 92.8669 202.802 92.7131 202.42 92.5904C201.882 92.4181 201.331 92.2863 200.782 92.1473C200.417 92.0546 200.059 91.9427 199.689 91.8651C199.071 91.7353 198.441 91.6521 197.812 91.5648C197.499 91.5208 197.191 91.4547 196.875 91.4216C194.661 91.1882 192.427 91.2229 190.222 91.5252C189.647 90.4525 189.013 89.4118 188.321 88.4075C188.219 88.2564 188.121 88.1022 188.016 87.9528C187.353 87.0158 186.64 86.1131 185.881 85.2482C185.737 85.0837 185.592 84.922 185.445 84.7603C184.676 83.9108 183.864 83.1006 183.01 82.3329C182.885 82.2212 182.755 82.1172 182.628 82.0072C181.756 81.2459 180.846 80.5292 179.899 79.8598C179.852 79.8266 179.808 79.7896 179.76 79.7567C178.79 79.0888 177.785 78.4711 176.748 77.9061C176.573 77.8096 176.401 77.7096 176.225 77.616C175.217 77.085 174.183 76.6044 173.126 76.176C172.922 76.0929 172.717 76.0147 172.511 75.9356C171.428 75.5158 170.324 75.1511 169.203 74.8431C169.06 74.8041 168.914 74.7748 168.77 74.7378C167.644 74.4464 166.504 74.2127 165.353 74.0376C165.28 74.0266 165.211 74.0042 165.139 73.9936C167.188 72.9063 169.484 72.3392 171.815 72.3439ZM178.061 158.2H119.939C120.379 155.684 121.556 153.348 123.326 151.474C125.096 149.601 127.384 148.271 129.911 147.647C130.396 147.526 130.826 147.251 131.134 146.864C131.441 146.477 131.608 146.001 131.607 145.511C131.608 145.334 131.593 145.157 131.562 144.982C131.565 144.079 131.639 143.178 131.782 142.286C132.414 138.263 134.499 134.597 137.659 131.954C140.82 129.311 144.844 127.867 149 127.886C150.581 127.884 152.155 128.09 153.68 128.499C156.644 129.295 159.337 130.849 161.484 133.002C163.632 135.154 165.155 137.828 165.897 140.747C165.981 141.073 166.04 141.41 166.105 141.744C166.14 141.923 166.187 142.097 166.217 142.279C166.361 143.162 166.433 144.054 166.435 144.947C166.408 145.134 166.395 145.322 166.393 145.511C166.393 146.001 166.56 146.477 166.867 146.863C167.174 147.25 167.604 147.525 168.089 147.646C170.617 148.271 172.904 149.601 174.674 151.474C176.445 153.348 177.621 155.684 178.061 158.2ZM228.185 139.737H170.279L170.267 139.697C170.226 139.535 170.17 139.38 170.125 139.22C169.999 138.772 169.871 138.325 169.719 137.891C169.641 137.67 169.548 137.461 169.464 137.244C169.322 136.879 169.182 136.513 169.021 136.158C168.916 135.928 168.798 135.708 168.685 135.483C168.523 135.156 168.361 134.828 168.183 134.511C168.053 134.282 167.913 134.062 167.775 133.839C167.592 133.54 167.409 133.241 167.211 132.952C167.059 132.73 166.898 132.517 166.739 132.301C166.535 132.026 166.33 131.753 166.114 131.489C165.942 131.279 165.763 131.077 165.584 130.873C165.359 130.619 165.132 130.369 164.896 130.126C164.707 129.93 164.512 129.742 164.315 129.553C164.071 129.32 163.823 129.092 163.568 128.87C163.362 128.691 163.152 128.515 162.938 128.345C162.676 128.134 162.409 127.93 162.137 127.732C161.914 127.569 161.691 127.41 161.462 127.256C161.182 127.068 160.896 126.888 160.607 126.712C160.371 126.569 160.136 126.427 159.895 126.294C159.597 126.128 159.292 125.973 158.985 125.821C158.74 125.699 158.497 125.575 158.246 125.462C157.928 125.318 157.602 125.189 157.276 125.06C157.025 124.961 156.776 124.858 156.521 124.767C156.18 124.647 155.831 124.543 155.482 124.439C155.23 124.363 154.981 124.281 154.725 124.214C154.357 124.118 153.981 124.043 153.605 123.966C153.358 123.915 153.116 123.855 152.867 123.811C152.448 123.739 152.021 123.692 151.594 123.643C151.381 123.619 151.171 123.582 150.956 123.564C150.311 123.509 149.659 123.478 148.999 123.478C148.339 123.478 147.687 123.509 147.041 123.564C146.826 123.582 146.617 123.619 146.403 123.643C145.976 123.692 145.55 123.739 145.13 123.811C144.881 123.855 144.638 123.915 144.392 123.966C144.016 124.043 143.641 124.118 143.272 124.214C143.016 124.281 142.767 124.363 142.515 124.439C142.166 124.543 141.817 124.647 141.476 124.767C141.221 124.857 140.973 124.96 140.723 125.059C140.395 125.189 140.069 125.319 139.75 125.463C139.502 125.575 139.26 125.697 139.017 125.818C138.707 125.972 138.399 126.128 138.098 126.296C137.861 126.429 137.63 126.568 137.398 126.709C137.104 126.887 136.813 127.07 136.53 127.261C136.305 127.412 136.087 127.568 135.869 127.727C135.592 127.929 135.319 128.138 135.052 128.352C134.845 128.519 134.64 128.69 134.439 128.864C134.177 129.091 133.923 129.325 133.674 129.564C133.483 129.746 133.295 129.928 133.111 130.117C132.867 130.368 132.633 130.626 132.402 130.888C132.23 131.084 132.058 131.278 131.893 131.48C131.668 131.754 131.456 132.038 131.244 132.324C131.093 132.529 130.939 132.732 130.794 132.942C130.588 133.244 130.396 133.556 130.205 133.868C130.076 134.079 129.943 134.286 129.821 134.502C129.634 134.832 129.465 135.175 129.295 135.517C129.191 135.729 129.078 135.936 128.98 136.152C128.811 136.525 128.663 136.91 128.514 137.295C128.438 137.493 128.352 137.684 128.281 137.885C128.12 138.345 127.982 138.818 127.851 139.295C127.814 139.43 127.766 139.559 127.731 139.696L127.719 139.737H105.527C104.517 137.674 103.995 135.415 104 133.128C104.017 130 104.998 126.95 106.815 124.377C108.632 121.804 111.2 119.829 114.183 118.709C114.689 118.521 115.108 118.16 115.365 117.693C115.621 117.227 115.697 116.685 115.578 116.168C115.135 114.236 115.142 112.231 115.598 110.301C116.054 108.372 116.947 106.568 118.213 105.023C119.478 103.478 121.082 102.231 122.906 101.376C124.73 100.521 126.727 100.078 128.75 100.082C129.107 100.081 129.464 100.099 129.819 100.136C130.343 100.19 130.869 100.062 131.307 99.7757C131.745 99.4889 132.066 99.0608 132.214 98.5661C133.954 92.7539 137.538 87.6346 142.447 83.9491C147.356 80.2635 153.335 78.203 159.519 78.0656C159.757 78.0484 160.011 78.0495 160.25 78.0506C165.871 78.0621 171.371 79.6554 176.094 82.6408C180.817 85.6261 184.564 89.8778 186.889 94.8893C187.1 95.3453 187.463 95.7171 187.919 95.9438C188.375 96.1704 188.896 96.2382 189.397 96.1361C191.715 95.6673 194.094 95.5558 196.448 95.8056C201.989 96.4028 207.106 98.9908 210.81 103.069C214.514 107.147 216.541 112.426 216.5 117.883C216.5 118.414 216.696 118.927 217.051 119.328C217.407 119.729 217.898 119.99 218.435 120.064C221.641 120.525 224.572 122.097 226.695 124.494C228.817 126.892 229.99 129.956 230 133.129C230.004 135.451 229.377 137.731 228.185 139.737Z" fill="#776D8A"/>
<path d="M80.8789 230.391C80.8789 229.852 80.9141 229.16 80.9844 228.316C81.0547 227.449 81.1719 226.523 81.3359 225.539C81.5234 224.531 81.7695 223.535 82.0742 222.551C82.3789 221.543 82.7422 220.629 83.1641 219.809C83.6094 218.988 84.125 218.32 84.7109 217.805C85.2969 217.289 85.9766 217.031 86.75 217.031C87.6875 217.031 88.4844 217.301 89.1406 217.84C89.8203 218.379 90.3711 219.047 90.793 219.844C91.2383 220.617 91.5781 221.449 91.8125 222.34C92.0469 223.23 92.1992 224.027 92.2695 224.73C92.2227 225.012 92.0938 225.246 91.8828 225.434C91.6719 225.598 91.4492 225.68 91.2148 225.68H91.0391C91.0156 225.633 90.9688 225.574 90.8984 225.504C90.8281 225.434 90.7812 225.387 90.7578 225.363C90.7578 225.293 90.7461 225.211 90.7227 225.117C90.7227 225 90.7227 224.871 90.7227 224.73C90.7227 224.59 90.7109 224.473 90.6875 224.379C90.6875 224.262 90.6875 224.18 90.6875 224.133C90.6875 223.688 90.7461 223.289 90.8633 222.938C90.9805 222.586 91.0391 222.223 91.0391 221.848V221.672C90.7578 221.344 90.4766 221.004 90.1953 220.652C89.9141 220.277 89.6094 219.938 89.2812 219.633C88.9766 219.328 88.6367 219.082 88.2617 218.895C87.8867 218.684 87.4648 218.578 86.9961 218.578C86.4102 218.578 85.8711 218.801 85.3789 219.246C84.9102 219.668 84.5 220.219 84.1484 220.898C83.7969 221.555 83.4922 222.305 83.2344 223.148C82.9766 223.969 82.7656 224.789 82.6016 225.609C82.4375 226.406 82.3203 227.156 82.25 227.859C82.1797 228.539 82.1445 229.078 82.1445 229.477C82.1445 230.391 82.25 231.234 82.4609 232.008C82.6719 232.781 83.0117 233.449 83.4805 234.012C83.9492 234.574 84.5234 235.02 85.2031 235.348C85.9062 235.652 86.7383 235.805 87.6992 235.805C88.1914 235.805 88.707 235.758 89.2461 235.664C89.7852 235.57 90.3125 235.441 90.8281 235.277C91.3672 235.113 91.8828 234.914 92.375 234.68C92.8906 234.445 93.3594 234.188 93.7812 233.906C93.8281 233.906 93.9102 233.859 94.0273 233.766C94.1445 233.672 94.2617 233.578 94.3789 233.484C94.5195 233.367 94.6484 233.273 94.7656 233.203C94.9062 233.109 94.9883 233.039 95.0117 232.992C95.0352 232.992 95.082 232.992 95.1523 232.992C95.2461 232.969 95.3047 232.957 95.3281 232.957C95.375 232.957 95.4336 232.969 95.5039 232.992C95.5742 232.992 95.6211 232.992 95.6445 232.992C95.5273 233.484 95.3047 233.93 94.9766 234.328C94.6484 234.703 94.25 235.043 93.7812 235.348C93.3359 235.652 92.832 235.91 92.2695 236.121C91.707 236.332 91.1445 236.508 90.582 236.648C90.0195 236.789 89.4805 236.895 88.9648 236.965C88.4727 237.012 88.0273 237.035 87.6289 237.035C86.6211 237.035 85.6953 236.883 84.8516 236.578C84.0312 236.273 83.3164 235.84 82.707 235.277C82.1211 234.715 81.6641 234.023 81.3359 233.203C81.0312 232.383 80.8789 231.445 80.8789 230.391ZM97.1211 228.352C97.1211 226.594 97.1914 224.859 97.332 223.148C97.4961 221.438 97.7422 219.715 98.0703 217.98C98.1406 217.699 98.2109 217.477 98.2812 217.312C98.3516 217.125 98.4336 216.984 98.5273 216.891C98.6445 216.773 98.7852 216.703 98.9492 216.68C99.1367 216.633 99.3711 216.609 99.6523 216.609C99.6523 216.703 99.6523 216.891 99.6523 217.172C99.6523 217.43 99.6406 217.594 99.6172 217.664C99.5938 217.828 99.5469 218.168 99.4766 218.684C99.4297 219.176 99.3594 219.762 99.2656 220.441C99.1719 221.121 99.0781 221.836 98.9844 222.586C98.8906 223.336 98.7969 224.051 98.7031 224.73C98.6328 225.41 98.5625 226.008 98.4922 226.523C98.4219 227.016 98.3867 227.344 98.3867 227.508V227.789C98.3867 228.914 98.5273 229.969 98.8086 230.953C99.1133 231.914 99.5703 232.758 100.18 233.484C100.789 234.211 101.539 234.785 102.43 235.207C103.32 235.605 104.363 235.805 105.559 235.805C106.262 235.805 106.953 235.734 107.633 235.594C108.336 235.43 109.027 235.254 109.707 235.066C110.387 234.855 111.055 234.668 111.711 234.504C112.391 234.34 113.07 234.258 113.75 234.258H114.031L113.75 234.855C113.727 234.855 113.633 234.891 113.469 234.961C113.305 235.031 113.105 235.125 112.871 235.242C112.637 235.336 112.402 235.441 112.168 235.559C111.934 235.652 111.734 235.734 111.57 235.805C110.562 236.18 109.543 236.484 108.512 236.719C107.504 236.93 106.449 237.035 105.348 237.035C103.941 237.035 102.723 236.836 101.691 236.438C100.66 236.039 99.8047 235.465 99.125 234.715C98.4453 233.965 97.9414 233.062 97.6133 232.008C97.2852 230.93 97.1211 229.711 97.1211 228.352ZM114.91 231.023C114.91 230.344 114.98 229.582 115.121 228.738C115.285 227.895 115.508 227.051 115.789 226.207C116.094 225.34 116.469 224.508 116.914 223.711C117.383 222.914 117.91 222.199 118.496 221.566C119.105 220.934 119.773 220.43 120.5 220.055C121.227 219.68 122.023 219.492 122.891 219.492C123.641 219.492 124.332 219.668 124.965 220.02C125.598 220.348 126.172 220.781 126.688 221.32C127.227 221.836 127.695 222.445 128.094 223.148C128.492 223.852 128.832 224.578 129.113 225.328C129.395 226.055 129.605 226.781 129.746 227.508C129.91 228.211 129.992 228.855 129.992 229.441C129.992 230.262 129.852 231.023 129.57 231.727C129.289 232.43 128.902 233.062 128.41 233.625C127.941 234.188 127.379 234.68 126.723 235.102C126.09 235.523 125.41 235.887 124.684 236.191C123.957 236.473 123.207 236.684 122.434 236.824C121.684 236.965 120.934 237.035 120.184 237.035C119.176 237.035 118.332 236.895 117.652 236.613C116.996 236.332 116.457 235.934 116.035 235.418C115.637 234.879 115.344 234.246 115.156 233.52C114.992 232.77 114.91 231.938 114.91 231.023ZM116.141 231.797C116.141 232.453 116.246 233.027 116.457 233.52C116.668 233.988 116.961 234.375 117.336 234.68C117.711 234.961 118.156 235.172 118.672 235.312C119.188 235.43 119.762 235.488 120.395 235.488C121.379 235.488 122.375 235.383 123.383 235.172C124.391 234.938 125.293 234.574 126.09 234.082C126.887 233.566 127.531 232.922 128.023 232.148C128.539 231.352 128.797 230.391 128.797 229.266C128.797 228.562 128.656 227.719 128.375 226.734C128.117 225.75 127.742 224.812 127.25 223.922C126.758 223.031 126.148 222.281 125.422 221.672C124.719 221.039 123.934 220.723 123.066 220.723C122.668 220.723 122.328 220.746 122.047 220.793C121.789 220.816 121.461 220.898 121.062 221.039V221.215V221.355C121.062 221.379 121.074 221.438 121.098 221.531C121.145 221.625 121.191 221.73 121.238 221.848C121.285 221.941 121.32 222.035 121.344 222.129C121.367 222.223 121.379 222.281 121.379 222.305C121.379 222.516 121.32 222.68 121.203 222.797C121.086 222.891 120.945 222.961 120.781 223.008C120.641 223.055 120.477 223.09 120.289 223.113C120.125 223.137 119.973 223.172 119.832 223.219C119.059 223.547 118.426 224.039 117.934 224.695C117.465 225.352 117.09 226.09 116.809 226.91C116.551 227.707 116.375 228.539 116.281 229.406C116.188 230.273 116.141 231.07 116.141 231.797ZM132.277 221.32C132.395 221.32 132.5 221.379 132.594 221.496C132.711 221.59 132.793 221.707 132.84 221.848C132.91 221.988 132.957 222.129 132.98 222.27C133.027 222.41 133.051 222.516 133.051 222.586V230.531C133.051 231.07 133.156 231.633 133.367 232.219C133.578 232.781 133.859 233.309 134.211 233.801C134.562 234.293 134.973 234.703 135.441 235.031C135.91 235.336 136.426 235.488 136.988 235.488C137.715 235.488 138.359 235.312 138.922 234.961C139.484 234.609 139.977 234.152 140.398 233.59C140.844 233.027 141.219 232.383 141.523 231.656C141.852 230.906 142.109 230.168 142.297 229.441C142.508 228.691 142.648 227.965 142.719 227.262C142.812 226.559 142.859 225.926 142.859 225.363C142.859 225.152 142.859 224.812 142.859 224.344C142.859 223.852 142.824 223.312 142.754 222.727C142.707 222.117 142.637 221.496 142.543 220.863C142.449 220.23 142.309 219.668 142.121 219.176C141.934 218.684 141.699 218.297 141.418 218.016C141.16 217.711 140.832 217.594 140.434 217.664C140.434 217.664 140.422 217.652 140.398 217.629C140.375 217.582 140.363 217.547 140.363 217.523C140.363 217.266 140.469 217.066 140.68 216.926C140.914 216.785 141.137 216.715 141.348 216.715C141.652 216.715 141.922 216.82 142.156 217.031C142.391 217.242 142.602 217.512 142.789 217.84C142.977 218.145 143.129 218.508 143.246 218.93C143.363 219.328 143.457 219.727 143.527 220.125C143.621 220.5 143.68 220.852 143.703 221.18C143.75 221.508 143.785 221.777 143.809 221.988C143.809 222.012 143.809 222.164 143.809 222.445C143.809 222.703 143.809 223.008 143.809 223.359C143.809 223.711 143.809 224.074 143.809 224.449C143.809 224.824 143.809 225.129 143.809 225.363C143.809 225.504 143.809 225.738 143.809 226.066C143.809 226.371 143.809 226.699 143.809 227.051C143.809 227.402 143.809 227.742 143.809 228.07C143.809 228.375 143.809 228.598 143.809 228.738C143.598 229.559 143.316 230.449 142.965 231.41C142.613 232.371 142.156 233.273 141.594 234.117C141.055 234.938 140.398 235.629 139.625 236.191C138.852 236.73 137.938 237 136.883 237C136.133 237 135.43 236.801 134.773 236.402C134.117 235.98 133.543 235.453 133.051 234.82C132.582 234.188 132.207 233.496 131.926 232.746C131.668 231.973 131.539 231.234 131.539 230.531V221.988C131.539 221.941 131.609 221.848 131.75 221.707C131.914 221.543 132.043 221.426 132.137 221.355H132.207C132.23 221.332 132.254 221.32 132.277 221.32ZM149.891 236.719C149.75 236.602 149.48 236.402 149.082 236.121C148.707 235.816 148.309 235.5 147.887 235.172C147.465 234.82 147.066 234.504 146.691 234.223C146.316 233.941 146.059 233.742 145.918 233.625C145.707 233.461 145.531 233.32 145.391 233.203C145.273 233.062 145.215 232.84 145.215 232.535C145.566 232.535 145.871 232.629 146.129 232.816C146.387 232.98 146.633 233.168 146.867 233.379C147.125 233.566 147.383 233.742 147.641 233.906C147.922 234.07 148.238 234.152 148.59 234.152C148.59 233.918 148.59 233.508 148.59 232.922C148.613 232.312 148.625 231.668 148.625 230.988C148.648 230.309 148.66 229.676 148.66 229.09C148.684 228.48 148.695 228.047 148.695 227.789C148.695 227.695 148.672 227.473 148.625 227.121C148.602 226.746 148.566 226.359 148.52 225.961C148.496 225.539 148.461 225.152 148.414 224.801C148.391 224.449 148.379 224.227 148.379 224.133C148.379 224.086 148.391 223.957 148.414 223.746C148.438 223.512 148.473 223.277 148.52 223.043C148.566 222.809 148.602 222.586 148.625 222.375C148.672 222.164 148.695 222.035 148.695 221.988V221.215V220.406C148.695 220.359 148.672 220.219 148.625 219.984C148.602 219.75 148.566 219.492 148.52 219.211C148.473 218.93 148.438 218.672 148.414 218.438C148.391 218.203 148.379 218.051 148.379 217.98C148.379 217.887 148.391 217.723 148.414 217.488C148.438 217.254 148.461 217.008 148.484 216.75C148.508 216.492 148.531 216.246 148.555 216.012C148.602 215.777 148.648 215.625 148.695 215.555C149.047 215.25 149.316 215.062 149.504 214.992C149.691 214.922 149.961 214.887 150.312 214.887C151.297 214.887 152.27 215.074 153.23 215.449C154.191 215.801 155.105 216.293 155.973 216.926C156.84 217.559 157.625 218.297 158.328 219.141C159.055 219.984 159.676 220.875 160.191 221.812C160.73 222.75 161.152 223.723 161.457 224.73C161.762 225.715 161.914 226.664 161.914 227.578C161.914 228.633 161.691 229.723 161.246 230.848C160.824 231.973 160.238 232.992 159.488 233.906C158.738 234.82 157.859 235.57 156.852 236.156C155.867 236.742 154.812 237.035 153.688 237.035C153.359 237.035 153.043 237.012 152.738 236.965C152.434 236.918 152.117 236.871 151.789 236.824C151.484 236.777 151.168 236.742 150.84 236.719C150.535 236.672 150.219 236.672 149.891 236.719ZM150.84 235.172C150.84 235.195 150.875 235.254 150.945 235.348C151.016 235.418 151.086 235.465 151.156 235.488C151.203 235.512 151.297 235.559 151.438 235.629C151.602 235.676 151.777 235.734 151.965 235.805C152.176 235.875 152.375 235.934 152.562 235.98C152.75 236.027 152.879 236.062 152.949 236.086H153.16C153.746 236.086 154.344 235.945 154.953 235.664C155.562 235.359 156.148 234.973 156.711 234.504C157.273 234.035 157.789 233.496 158.258 232.887C158.727 232.254 159.137 231.609 159.488 230.953C159.84 230.297 160.121 229.641 160.332 228.984C160.543 228.328 160.648 227.719 160.648 227.156C160.648 226.477 160.508 225.738 160.227 224.941C159.945 224.145 159.559 223.348 159.066 222.551C158.598 221.754 158.047 220.992 157.414 220.266C156.781 219.516 156.102 218.859 155.375 218.297C154.672 217.734 153.945 217.289 153.195 216.961C152.469 216.609 151.754 216.434 151.051 216.434C150.887 216.434 150.723 216.445 150.559 216.469C150.395 216.469 150.242 216.492 150.102 216.539C149.961 216.586 149.832 216.668 149.715 216.785C149.621 216.902 149.574 217.066 149.574 217.277C149.574 217.676 149.574 218.074 149.574 218.473C149.574 218.871 149.586 219.281 149.609 219.703C149.656 220.102 149.715 220.5 149.785 220.898C149.879 221.273 150.02 221.637 150.207 221.988L150.84 235.172ZM163.391 229.055C163.391 228.516 163.531 228.07 163.812 227.719C164.117 227.344 164.48 227.051 164.902 226.84C165.324 226.629 165.781 226.477 166.273 226.383C166.766 226.289 167.223 226.242 167.645 226.242C167.738 226.242 167.902 226.289 168.137 226.383C168.371 226.477 168.523 226.547 168.594 226.594V226.629C168.594 226.652 168.594 226.676 168.594 226.699C168.594 226.91 168.5 227.062 168.312 227.156C168.148 227.25 167.926 227.332 167.645 227.402C167.363 227.449 167.059 227.496 166.73 227.543C166.426 227.59 166.133 227.672 165.852 227.789C165.57 227.906 165.336 228.07 165.148 228.281C164.984 228.492 164.902 228.785 164.902 229.16C164.902 229.676 165.148 230.203 165.641 230.742C166.133 231.281 166.754 231.785 167.504 232.254C168.277 232.723 169.133 233.168 170.07 233.59C171.008 233.988 171.922 234.34 172.812 234.645C173.703 234.926 174.512 235.148 175.238 235.312C175.965 235.453 176.516 235.512 176.891 235.488C176.961 235.488 177.078 235.465 177.242 235.418C177.43 235.348 177.617 235.277 177.805 235.207C177.992 235.137 178.168 235.066 178.332 234.996C178.52 234.926 178.648 234.879 178.719 234.855C178.719 234.809 178.719 234.715 178.719 234.574C178.742 234.41 178.754 234.305 178.754 234.258C178.754 233.977 178.719 233.742 178.648 233.555C178.578 233.344 178.473 233.156 178.332 232.992C178.215 232.805 178.051 232.629 177.84 232.465C177.652 232.277 177.43 232.055 177.172 231.797C176.961 231.586 176.645 231.27 176.223 230.848C175.801 230.426 175.32 229.957 174.781 229.441C174.242 228.902 173.668 228.352 173.059 227.789C172.473 227.203 171.898 226.652 171.336 226.137C170.773 225.598 170.281 225.129 169.859 224.73C169.438 224.309 169.121 223.992 168.91 223.781C168.23 222.914 167.691 222.059 167.293 221.215C166.918 220.371 166.73 219.398 166.73 218.297C166.73 217.312 166.918 216.422 167.293 215.625C167.691 214.828 168.336 214.172 169.227 213.656C169.273 213.656 169.367 213.656 169.508 213.656C169.648 213.656 169.801 213.656 169.965 213.656C170.129 213.656 170.281 213.656 170.422 213.656C170.586 213.656 170.691 213.656 170.738 213.656C171.395 213.656 172.086 213.785 172.812 214.043C173.539 214.277 174.207 214.617 174.816 215.062C175.426 215.508 175.93 216.047 176.328 216.68C176.727 217.312 176.926 218.004 176.926 218.754C176.926 218.848 176.914 219 176.891 219.211C176.867 219.398 176.762 219.492 176.574 219.492C176.223 219.492 175.906 219.387 175.625 219.176C175.367 218.941 175.109 218.648 174.852 218.297C174.617 217.945 174.383 217.582 174.148 217.207C173.914 216.809 173.645 216.434 173.34 216.082C173.059 215.73 172.719 215.449 172.32 215.238C171.945 215.004 171.512 214.887 171.02 214.887C170.645 214.887 170.27 215.004 169.895 215.238C169.52 215.449 169.191 215.719 168.91 216.047C168.629 216.375 168.395 216.738 168.207 217.137C168.043 217.535 167.961 217.91 167.961 218.262C167.961 218.777 168.031 219.316 168.172 219.879C168.312 220.418 168.512 220.945 168.77 221.461C169.027 221.953 169.32 222.434 169.648 222.902C170 223.348 170.363 223.758 170.738 224.133L179.035 232.113C179.387 232.418 179.68 232.828 179.914 233.344C180.172 233.859 180.301 234.352 180.301 234.82C180.301 235.195 180.219 235.523 180.055 235.805C179.891 236.086 179.68 236.32 179.422 236.508C179.164 236.672 178.859 236.801 178.508 236.895C178.18 236.965 177.84 237 177.488 237H177.172C176.984 236.977 176.691 236.918 176.293 236.824C175.895 236.707 175.484 236.602 175.062 236.508C174.641 236.414 174.242 236.332 173.867 236.262C173.516 236.168 173.293 236.109 173.199 236.086C172.824 235.969 172.32 235.793 171.688 235.559C171.078 235.301 170.41 235.008 169.684 234.68C168.957 234.328 168.219 233.941 167.469 233.52C166.719 233.074 166.039 232.605 165.43 232.113C164.844 231.621 164.352 231.117 163.953 230.602C163.578 230.062 163.391 229.547 163.391 229.055ZM199.531 236.719C199.391 236.602 199.121 236.402 198.723 236.121C198.348 235.816 197.949 235.5 197.527 235.172C197.105 234.82 196.707 234.504 196.332 234.223C195.957 233.941 195.699 233.742 195.559 233.625C195.348 233.461 195.172 233.32 195.031 233.203C194.914 233.062 194.855 232.84 194.855 232.535C195.207 232.535 195.512 232.629 195.77 232.816C196.027 232.98 196.273 233.168 196.508 233.379C196.766 233.566 197.023 233.742 197.281 233.906C197.562 234.07 197.879 234.152 198.23 234.152C198.23 233.918 198.23 233.508 198.23 232.922C198.254 232.312 198.266 231.668 198.266 230.988C198.289 230.309 198.301 229.676 198.301 229.09C198.324 228.48 198.336 228.047 198.336 227.789C198.336 227.695 198.312 227.473 198.266 227.121C198.242 226.746 198.207 226.359 198.16 225.961C198.137 225.539 198.102 225.152 198.055 224.801C198.031 224.449 198.02 224.227 198.02 224.133C198.02 224.086 198.031 223.957 198.055 223.746C198.078 223.512 198.113 223.277 198.16 223.043C198.207 222.809 198.242 222.586 198.266 222.375C198.312 222.164 198.336 222.035 198.336 221.988V221.215V220.406C198.336 220.359 198.312 220.219 198.266 219.984C198.242 219.75 198.207 219.492 198.16 219.211C198.113 218.93 198.078 218.672 198.055 218.438C198.031 218.203 198.02 218.051 198.02 217.98C198.02 217.887 198.031 217.723 198.055 217.488C198.078 217.254 198.102 217.008 198.125 216.75C198.148 216.492 198.172 216.246 198.195 216.012C198.242 215.777 198.289 215.625 198.336 215.555C198.688 215.25 198.957 215.062 199.145 214.992C199.332 214.922 199.602 214.887 199.953 214.887C200.938 214.887 201.91 215.074 202.871 215.449C203.832 215.801 204.746 216.293 205.613 216.926C206.48 217.559 207.266 218.297 207.969 219.141C208.695 219.984 209.316 220.875 209.832 221.812C210.371 222.75 210.793 223.723 211.098 224.73C211.402 225.715 211.555 226.664 211.555 227.578C211.555 228.633 211.332 229.723 210.887 230.848C210.465 231.973 209.879 232.992 209.129 233.906C208.379 234.82 207.5 235.57 206.492 236.156C205.508 236.742 204.453 237.035 203.328 237.035C203 237.035 202.684 237.012 202.379 236.965C202.074 236.918 201.758 236.871 201.43 236.824C201.125 236.777 200.809 236.742 200.48 236.719C200.176 236.672 199.859 236.672 199.531 236.719ZM200.48 235.172C200.48 235.195 200.516 235.254 200.586 235.348C200.656 235.418 200.727 235.465 200.797 235.488C200.844 235.512 200.938 235.559 201.078 235.629C201.242 235.676 201.418 235.734 201.605 235.805C201.816 235.875 202.016 235.934 202.203 235.98C202.391 236.027 202.52 236.062 202.59 236.086H202.801C203.387 236.086 203.984 235.945 204.594 235.664C205.203 235.359 205.789 234.973 206.352 234.504C206.914 234.035 207.43 233.496 207.898 232.887C208.367 232.254 208.777 231.609 209.129 230.953C209.48 230.297 209.762 229.641 209.973 228.984C210.184 228.328 210.289 227.719 210.289 227.156C210.289 226.477 210.148 225.738 209.867 224.941C209.586 224.145 209.199 223.348 208.707 222.551C208.238 221.754 207.688 220.992 207.055 220.266C206.422 219.516 205.742 218.859 205.016 218.297C204.312 217.734 203.586 217.289 202.836 216.961C202.109 216.609 201.395 216.434 200.691 216.434C200.527 216.434 200.363 216.445 200.199 216.469C200.035 216.469 199.883 216.492 199.742 216.539C199.602 216.586 199.473 216.668 199.355 216.785C199.262 216.902 199.215 217.066 199.215 217.277C199.215 217.676 199.215 218.074 199.215 218.473C199.215 218.871 199.227 219.281 199.25 219.703C199.297 220.102 199.355 220.5 199.426 220.898C199.52 221.273 199.66 221.637 199.848 221.988L200.48 235.172ZM215.457 236.086C215.457 236.039 215.457 235.98 215.457 235.91C215.48 235.84 215.492 235.805 215.492 235.805C215.844 235.125 216.207 234.469 216.582 233.836C216.98 233.203 217.379 232.582 217.777 231.973C218.199 231.34 218.598 230.707 218.973 230.074C219.371 229.418 219.734 228.762 220.062 228.105C219.969 227.895 219.734 227.707 219.359 227.543C218.984 227.379 218.527 227.203 217.988 227.016C217.473 226.828 216.922 226.617 216.336 226.383C215.75 226.125 215.211 225.832 214.719 225.504C214.227 225.152 213.816 224.754 213.488 224.309C213.16 223.84 212.996 223.301 212.996 222.691C212.996 222.059 213.207 221.508 213.629 221.039C214.051 220.547 214.566 220.148 215.176 219.844C215.785 219.516 216.43 219.27 217.109 219.105C217.789 218.941 218.375 218.859 218.867 218.859C219.898 218.859 220.801 219.035 221.574 219.387C222.371 219.738 223.191 220.195 224.035 220.758C224.316 220.547 224.551 220.312 224.738 220.055C224.949 219.797 225.137 219.516 225.301 219.211C225.371 219.047 225.523 218.754 225.758 218.332C226.016 217.887 226.262 217.418 226.496 216.926C226.754 216.434 227 215.977 227.234 215.555C227.492 215.109 227.656 214.793 227.727 214.605C227.914 214.465 228.066 214.383 228.184 214.359C228.301 214.312 228.465 214.289 228.676 214.289C228.699 214.289 228.746 214.289 228.816 214.289C228.91 214.289 228.969 214.289 228.992 214.289C229.227 215.273 229.402 216.281 229.52 217.312C229.637 218.344 229.719 219.375 229.766 220.406C229.836 221.438 229.895 222.469 229.941 223.5C229.988 224.531 230.07 225.562 230.188 226.594C230.258 226.594 230.387 226.605 230.574 226.629C230.762 226.629 230.902 226.629 230.996 226.629C231.324 226.629 231.652 226.594 231.98 226.523C232.309 226.453 232.637 226.383 232.965 226.312C233.293 226.219 233.621 226.137 233.949 226.066C234.301 225.996 234.652 225.961 235.004 225.961H235.109C235.133 225.984 235.18 226.031 235.25 226.102C235.32 226.172 235.379 226.219 235.426 226.242C235.285 226.5 235.051 226.711 234.723 226.875C234.418 227.016 234.066 227.133 233.668 227.227C233.293 227.32 232.895 227.414 232.473 227.508C232.051 227.578 231.676 227.672 231.348 227.789C231.02 227.883 230.738 228 230.504 228.141C230.293 228.281 230.188 228.48 230.188 228.738C230.188 229.207 230.211 229.676 230.258 230.145C230.328 230.613 230.398 231.094 230.469 231.586C230.562 232.055 230.645 232.535 230.715 233.027C230.785 233.496 230.82 233.977 230.82 234.469C230.82 234.586 230.809 234.75 230.785 234.961C230.785 235.172 230.762 235.383 230.715 235.594C230.691 235.805 230.621 235.992 230.504 236.156C230.41 236.32 230.258 236.402 230.047 236.402C229.812 236.402 229.602 236.227 229.414 235.875C229.227 235.523 229.074 235.078 228.957 234.539C228.84 234 228.734 233.414 228.641 232.781C228.57 232.125 228.5 231.504 228.43 230.918C228.383 230.309 228.324 229.781 228.254 229.336C228.184 228.867 228.113 228.562 228.043 228.422C227.855 228.398 227.504 228.375 226.988 228.352C226.496 228.328 225.969 228.305 225.406 228.281C224.867 228.234 224.352 228.199 223.859 228.176C223.367 228.129 223.027 228.105 222.84 228.105H222.488C222.02 228.105 221.574 228.328 221.152 228.773C220.754 229.195 220.379 229.746 220.027 230.426C219.699 231.082 219.371 231.797 219.043 232.57C218.715 233.32 218.398 234.035 218.094 234.715C217.789 235.371 217.473 235.922 217.145 236.367C216.816 236.812 216.465 237.035 216.09 237.035C215.832 237.035 215.656 236.941 215.562 236.754C215.492 236.543 215.457 236.32 215.457 236.086ZM222.523 226.594C222.711 226.711 222.934 226.805 223.191 226.875C223.473 226.922 223.754 226.945 224.035 226.945C224.316 226.945 224.574 226.945 224.809 226.945C225.066 226.945 225.289 226.945 225.477 226.945C225.57 226.945 225.688 226.945 225.828 226.945C225.969 226.922 226.109 226.91 226.25 226.91C226.391 226.91 226.508 226.91 226.602 226.91C226.719 226.887 226.789 226.875 226.812 226.875L227.129 226.594C227.176 226.547 227.094 226.336 226.883 225.961C226.672 225.586 226.402 225.199 226.074 224.801C225.77 224.379 225.465 224.004 225.16 223.676C224.855 223.324 224.645 223.148 224.527 223.148C224.504 223.148 224.48 223.16 224.457 223.184C224.434 223.207 224.398 223.219 224.352 223.219C224 223.734 223.672 224.273 223.367 224.836C223.062 225.398 222.781 225.984 222.523 226.594ZM214.543 222.656C214.543 223.266 214.754 223.805 215.176 224.273C215.598 224.719 216.113 225.094 216.723 225.398C217.332 225.703 217.977 225.926 218.656 226.066C219.336 226.207 219.934 226.277 220.449 226.277C220.777 226.277 221.117 226.113 221.469 225.785C221.82 225.434 222.137 225.035 222.418 224.59C222.723 224.145 222.969 223.688 223.156 223.219C223.367 222.75 223.473 222.387 223.473 222.129C223.473 221.848 223.285 221.59 222.91 221.355C222.535 221.098 222.09 220.875 221.574 220.688C221.082 220.5 220.59 220.359 220.098 220.266C219.605 220.148 219.242 220.09 219.008 220.09C218.656 220.09 218.223 220.148 217.707 220.266C217.215 220.359 216.723 220.512 216.23 220.723C215.762 220.934 215.363 221.203 215.035 221.531C214.707 221.836 214.543 222.211 214.543 222.656ZM225.582 221.496C225.582 221.801 225.699 222.176 225.934 222.621C226.168 223.066 226.449 223.5 226.777 223.922C227.105 224.344 227.445 224.707 227.797 225.012C228.172 225.316 228.5 225.469 228.781 225.469C228.781 225.352 228.77 225.176 228.746 224.941C228.746 224.707 228.734 224.449 228.711 224.168C228.711 223.887 228.699 223.629 228.676 223.395C228.676 223.16 228.676 222.984 228.676 222.867C228.629 222.539 228.57 222.105 228.5 221.566C228.453 221.027 228.395 220.5 228.324 219.984C228.277 219.469 228.219 219.012 228.148 218.613C228.102 218.215 228.066 218.004 228.043 217.98L227.727 217.383C227.703 217.406 227.645 217.453 227.551 217.523C227.48 217.594 227.434 217.641 227.41 217.664C227.34 217.805 227.223 218.039 227.059 218.367C226.895 218.672 226.707 219 226.496 219.352C226.309 219.703 226.133 220.043 225.969 220.371C225.805 220.699 225.688 220.922 225.617 221.039C225.617 221.086 225.605 221.168 225.582 221.285C225.582 221.402 225.582 221.473 225.582 221.496ZM244.602 238.582C244.602 237.973 244.648 237.363 244.742 236.754C244.836 236.145 244.941 235.547 245.059 234.961C245.176 234.352 245.281 233.754 245.375 233.168C245.492 232.559 245.551 231.949 245.551 231.34V231.164C244.285 230.93 243.102 230.578 242 230.109C240.922 229.617 239.984 228.984 239.188 228.211C238.391 227.438 237.758 226.523 237.289 225.469C236.844 224.391 236.621 223.137 236.621 221.707C236.621 221.496 236.609 221.215 236.586 220.863C236.586 220.488 236.621 220.137 236.691 219.809C236.762 219.48 236.879 219.199 237.043 218.965C237.23 218.707 237.5 218.578 237.852 218.578C238.18 218.578 238.414 218.613 238.555 218.684C238.719 218.754 238.801 218.965 238.801 219.316C238.801 219.621 238.766 219.914 238.695 220.195C238.625 220.477 238.555 220.758 238.484 221.039C238.414 221.297 238.344 221.578 238.273 221.883C238.203 222.164 238.168 222.445 238.168 222.727C238.168 223.57 238.344 224.402 238.695 225.223C239.047 226.02 239.516 226.723 240.102 227.332C240.711 227.941 241.402 228.434 242.176 228.809C242.949 229.184 243.758 229.371 244.602 229.371C244.672 229.371 244.754 229.371 244.848 229.371C244.965 229.371 245.094 229.371 245.234 229.371C245.375 229.348 245.492 229.336 245.586 229.336C245.703 229.336 245.797 229.336 245.867 229.336C246.289 229.055 246.617 228.574 246.852 227.895C247.109 227.191 247.32 226.418 247.484 225.574C247.648 224.707 247.789 223.805 247.906 222.867C248.023 221.93 248.176 221.086 248.363 220.336C248.551 219.562 248.773 218.93 249.031 218.438C249.312 217.922 249.688 217.664 250.156 217.664C250.18 217.664 250.227 217.711 250.297 217.805C250.367 217.875 250.414 217.934 250.438 217.98C250.461 218.004 250.484 218.098 250.508 218.262C250.531 218.402 250.555 218.578 250.578 218.789C250.602 218.977 250.625 219.176 250.648 219.387C250.695 219.574 250.73 219.727 250.754 219.844V219.984C250.754 221.109 250.625 222.211 250.367 223.289C250.133 224.344 249.828 225.387 249.453 226.418C249.102 227.426 248.715 228.434 248.293 229.441C247.871 230.426 247.473 231.434 247.098 232.465C246.746 233.473 246.441 234.504 246.184 235.559C245.949 236.613 245.832 237.715 245.832 238.863C245.832 239.707 245.891 240.527 246.008 241.324C246.148 242.145 246.219 242.977 246.219 243.82C245.914 243.82 245.656 243.715 245.445 243.504C245.234 243.293 245.07 243.023 244.953 242.695C244.836 242.367 244.742 241.992 244.672 241.57C244.625 241.172 244.59 240.773 244.566 240.375C244.566 240 244.566 239.648 244.566 239.32C244.59 238.992 244.602 238.746 244.602 238.582Z" fill="white"/>
</svg>
