<svg width="157" height="157" viewBox="0 0 157 157" fill="none" xmlns="http://www.w3.org/2000/svg">
<path d="M156.276 24.4181C156.276 10.9324 145.343 0 131.858 0H24.4181C10.9324 0 0 10.9324 0 24.4181V131.858C0 145.343 10.9324 156.276 24.4181 156.276H131.858C145.343 156.276 156.276 145.343 156.276 131.858V24.4181Z" fill="black"/>
<path d="M78.0568 78.1389C78.0568 70.9468 83.8873 65.1157 91.0794 65.1157C98.272 65.1157 104.103 70.9468 104.103 78.1389C104.103 85.3315 98.272 91.162 91.0794 91.162C83.8873 91.162 78.0568 85.3315 78.0568 78.1389Z" fill="#1ABCFE"/>
<path d="M52.0106 104.183C52.0106 96.9907 57.8412 91.1602 65.0338 91.1602H78.0569V104.183C78.0569 111.375 72.2263 117.206 65.0338 117.206C57.8412 117.206 52.0106 111.375 52.0106 104.183Z" fill="#0ACF83"/>
<path d="M78.0568 39.0688V65.1146H91.0794C98.272 65.1146 104.103 59.2841 104.103 52.092C104.103 44.8994 98.272 39.0688 91.0794 39.0688H78.0568Z" fill="#FF7262"/>
<path d="M52.0106 52.092C52.0106 59.2841 57.8412 65.1146 65.0338 65.1146H78.0569V39.0688H65.0338C57.8412 39.0688 52.0106 44.8994 52.0106 52.092Z" fill="#F24E1E"/>
<path d="M52.0106 78.1389C52.0106 85.3315 57.8412 91.162 65.0338 91.162H78.0569V65.1157H65.0338C57.8412 65.1157 52.0106 70.9468 52.0106 78.1389Z" fill="#A259FF"/>
</svg>
