<svg width="148" height="156" viewBox="0 0 148 156" fill="none" xmlns="http://www.w3.org/2000/svg">
<path d="M96.5634 97.4756C96.5634 112.243 83.4416 111.902 82.0541 111.902H55.3315V83.4565H82.0541C96.1141 83.4565 96.5634 94.5646 96.5634 97.4756ZM79.996 72.0107C80.2173 72.0107 92.6949 72.3589 92.6949 59.3671C92.6949 53.9628 91.5354 46.8766 79.996 46.8766H55.3315V72.0107H79.996ZM148 26.0012V129.999C147.981 136.889 145.376 143.49 140.754 148.362C136.132 153.234 129.869 155.98 123.332 156H24.6678C18.1314 155.98 11.8682 153.234 7.2462 148.362C2.62425 143.49 0.0191736 136.889 0 129.999V26.0012C0.0191736 19.1114 2.62425 12.5097 7.2462 7.63789C11.8682 2.7661 18.1314 0.02021 24.6678 0H123.332C129.869 0.02021 136.132 2.7661 140.754 7.63789C145.376 12.5097 147.981 19.1114 148 26.0012ZM111.677 99.5405C111.677 92.0295 109.48 79.2431 95.4732 76.0883V75.8341C103.042 72.4286 107.809 65.9971 107.809 56.4595C107.809 54.022 108.469 33.9021 82.173 33.9021H40.2177V124.901C82.5794 124.901 86.4247 125.486 94.2641 122.913C98.9585 121.374 111.677 116.652 111.677 99.5405Z" fill="black"/>
</svg>
