<svg width="156" height="156" viewBox="0 0 156 156" fill="none" xmlns="http://www.w3.org/2000/svg">
<path d="M139.286 0H16.7143C7.48661 0 0 7.48661 0 16.7143V139.286C0 148.513 7.48661 156 16.7143 156H139.286C148.513 156 156 148.513 156 139.286V16.7143C156 7.48661 148.513 0 139.286 0ZM84.8946 121.666C84.8946 136.848 75.9804 143.778 62.992 143.778C51.2571 143.778 44.467 137.719 40.9848 130.371L52.9286 123.163C55.2268 127.238 57.3161 130.685 62.3652 130.685C67.1705 130.685 70.2348 128.804 70.2348 121.457V71.6277H84.8946V121.666ZM119.577 143.778C105.962 143.778 97.1518 137.301 92.8688 128.804L104.813 121.91C107.946 127.029 112.055 130.824 119.263 130.824C125.322 130.824 129.222 127.795 129.222 123.581C129.222 118.567 125.253 116.791 118.532 113.831L114.876 112.264C104.29 107.772 97.2911 102.096 97.2911 90.1527C97.2911 79.1491 105.683 70.792 118.741 70.792C128.073 70.792 134.759 74.0304 139.564 82.5268L128.143 89.8393C125.636 85.3473 122.92 83.5714 118.706 83.5714C114.423 83.5714 111.707 86.2875 111.707 89.8393C111.707 94.2268 114.423 96.0027 120.726 98.7536L124.382 100.321C136.848 105.648 143.847 111.115 143.847 123.372C143.847 136.535 133.471 143.778 119.577 143.778Z" fill="black"/>
</svg>
