<svg width="156" height="156" viewBox="0 0 156 156" fill="none" xmlns="http://www.w3.org/2000/svg">
<g clip-path="url(#clip0_51_9)">
<path d="M78 156C121.078 156 156 121.078 156 78C156 34.9218 121.078 0 78 0C34.9218 0 0 34.9218 0 78C0 121.078 34.9218 156 78 156Z" fill="black"/>
<path d="M98.8498 68.4694C93.923 46.7254 82.2793 39.5759 81.0255 36.8443C79.6545 34.9172 78.2651 31.4895 78.2651 31.4895C78.2422 31.4316 78.2057 31.3295 78.163 31.2305C78.0213 33.1576 77.9482 33.9011 76.1262 35.845C73.3048 38.0509 58.8291 50.1973 57.6514 74.9013C56.5531 97.9418 74.295 111.671 76.6944 113.421L76.9671 113.615V113.598C76.9823 113.714 77.7288 119.083 78.2529 124.771H80.1328C80.5739 120.75 81.235 116.756 82.1133 112.808L82.2656 112.708C83.3389 111.939 84.3622 111.102 85.3293 110.202L85.4389 110.103C90.5394 105.391 99.709 94.4927 99.6191 77.1164C99.6001 74.2179 99.3428 71.3258 98.8498 68.4694ZM78.0533 100.413C78.0533 100.413 78.0533 68.0977 79.1197 68.1038C79.9515 68.1038 81.0286 109.787 81.0286 109.787C79.5478 109.608 78.0533 102.926 78.0533 100.413Z" fill="white"/>
</g>
<defs>
<clipPath id="clip0_51_9">
<rect width="156" height="156" fill="white"/>
</clipPath>
</defs>
</svg>
