<svg width="156" height="158" viewBox="0 0 156 158" fill="none" xmlns="http://www.w3.org/2000/svg">
<path d="M78 158C75.5776 158 73.3168 157.419 71.2174 156.403L49.7391 144.936C46.5093 143.339 48.1242 142.759 49.0932 142.469C53.4534 141.162 54.2609 140.872 58.7826 138.549C59.2671 138.259 59.913 138.404 60.3975 138.695L76.8696 147.549C77.5155 147.839 78.323 147.839 78.8075 147.549L143.242 114.018C143.888 113.728 144.211 113.147 144.211 112.422V45.5057C144.211 44.78 143.888 44.1994 143.242 43.909L78.8075 10.5237C78.1615 10.2333 77.354 10.2333 76.8696 10.5237L12.4348 43.909C11.7888 44.1994 11.4658 44.9251 11.4658 45.5057V112.422C11.4658 113.002 11.7888 113.728 12.4348 114.018L30.0373 123.163C39.5652 127.518 45.5404 122.437 45.5404 117.357V51.3119C45.5404 50.441 46.3478 49.57 47.4783 49.57H55.7143C56.6832 49.57 57.6522 50.2958 57.6522 51.3119V117.357C57.6522 128.824 50.7081 135.501 38.5963 135.501C34.882 135.501 31.9752 135.501 23.7391 131.872L6.78261 123.163C2.58385 120.986 0 116.921 0 112.567V45.6509C0 41.2963 2.58385 37.232 6.78261 35.0547L71.2174 1.52412C75.2547 -0.508038 80.7453 -0.508038 84.7826 1.52412L149.217 35.0547C153.416 37.232 156 41.2963 156 45.6509V112.567C156 116.921 153.416 120.986 149.217 123.163L84.7826 156.694C82.6832 157.565 80.2609 158 78 158ZM97.8634 111.986C69.6025 111.986 63.7888 100.374 63.7888 90.5034C63.7888 89.6325 64.5963 88.7616 65.7267 88.7616H74.1242C75.0932 88.7616 75.9006 89.3422 75.9006 90.2131C77.1925 97.9063 80.9068 101.68 98.0248 101.68C111.59 101.68 117.404 98.9224 117.404 92.3904C117.404 88.6164 115.789 85.8585 94.6335 83.9715C77.0311 82.3748 66.0497 78.8911 66.0497 66.2627C66.0497 54.5053 77.0311 47.5379 95.441 47.5379C116.112 47.5379 126.286 53.9247 127.578 67.8594C127.578 68.2949 127.416 68.7304 127.093 69.1658C126.77 69.4561 126.286 69.7464 125.801 69.7464H117.404C116.596 69.7464 115.789 69.1658 115.627 68.4401C113.689 60.4566 108.683 57.8438 95.441 57.8438C80.5839 57.8438 78.8075 62.4887 78.8075 65.9724C78.8075 70.1819 80.9068 71.4883 100.932 73.8107C120.795 76.1332 130.161 79.4717 130.161 91.955C130 104.729 118.373 111.986 97.8634 111.986Z" fill="black"/>
</svg>
