<svg width="162" height="150" viewBox="0 0 162 150" fill="none" xmlns="http://www.w3.org/2000/svg">
<path d="M81 59.9742C73.0367 59.9742 66.5516 66.6817 66.5516 74.9182C66.5516 83.1548 73.0367 89.8623 81 89.8623C88.9633 89.8623 95.4484 83.1548 95.4484 74.9182C95.4484 66.6817 88.9633 59.9742 81 59.9742ZM40.5506 104.618L37.3613 103.801C13.6282 97.5805 0 87.0557 0 74.8921C0 62.7284 13.6333 52.2037 37.3613 45.9831L40.5506 45.1662L41.4467 48.4389C43.8463 57 46.9294 65.3465 50.6503 73.4207L51.3338 74.8921L50.6503 76.3896C46.9344 84.4324 43.8463 92.7789 41.4467 101.371L40.5506 104.618ZM35.8881 53.6174C17.8504 58.8536 6.77869 66.8964 6.77869 74.8921C6.77869 82.8877 17.8554 90.8991 35.8881 96.1667C38.1054 88.8832 40.7683 81.7934 43.8767 74.8921C40.7632 67.9908 38.1004 60.901 35.8881 53.6174ZM121.449 104.618L120.553 101.345C118.154 92.7841 115.071 84.4376 111.35 76.3896L110.666 74.8921L111.35 73.3945C115.066 65.3517 118.154 57.0053 120.553 48.4127L121.449 45.1662L124.639 45.9831C148.372 52.2037 162 62.7284 162 74.8921C162 87.0557 148.367 97.5805 124.639 103.801L121.449 104.618ZM118.123 74.8921C121.368 82.1442 124.057 89.2654 126.112 96.1667C144.175 90.9043 155.221 82.8877 155.221 74.8921C155.221 66.8964 144.145 58.885 126.112 53.6174C123.895 60.8696 121.232 67.9908 118.123 74.8921ZM35.8324 53.5913L34.9363 50.3187C28.2639 25.9913 30.294 8.53913 40.5 2.45469C50.5187 -3.5198 66.5769 3.54381 83.4249 21.4359L85.7182 23.8654L83.4249 26.295C77.4411 32.7303 71.9837 39.6578 67.0781 47.0199L66.1567 48.3551L64.5722 48.4912C55.9508 49.1981 47.4053 50.6171 39.0218 52.7482L35.8324 53.5913ZM48.6456 7.31386C46.8281 7.31386 45.2183 7.69611 43.8716 8.51295C37.1739 12.5239 35.9893 26.4312 40.6013 45.1924C47.8001 43.5273 55.0749 42.3544 62.4358 41.6737C66.6529 35.4531 71.2952 29.5101 76.2767 23.9178C65.7568 13.3093 55.7888 7.31386 48.6456 7.31386ZM113.38 149.45C113.354 149.45 113.354 149.45 113.38 149.45C103.756 149.45 91.3882 141.978 78.5751 128.343L76.2817 125.913L78.5751 123.484C84.5589 117.049 90.0163 110.121 94.9219 102.759L95.8179 101.424L97.4025 101.261C106.024 100.581 114.569 99.1618 122.978 97.0045L126.168 96.1876L127.064 99.4602C133.736 123.788 131.706 141.214 121.5 147.293C119.019 148.764 116.225 149.508 113.38 149.45ZM85.7182 125.861C96.2381 136.47 106.206 142.47 113.349 142.47H113.375C115.167 142.47 116.777 142.062 118.123 141.271C124.821 137.26 126.036 123.353 121.394 104.592C114.195 106.257 106.89 107.43 99.5591 108.084C95.3421 114.331 90.6997 120.243 85.7182 125.861ZM126.168 53.5913L122.978 52.7482C114.569 50.6223 106.024 49.2033 97.4025 48.4912L95.8179 48.3551L94.9219 47.0199C90.0163 39.6578 84.5589 32.7303 78.5751 26.295L76.2817 23.8654L78.5751 21.4359C95.4231 3.54381 111.481 -3.5198 121.5 2.45469C131.706 8.5339 133.736 25.9913 127.064 50.3187L126.168 53.5913ZM99.5642 41.6737C107.264 42.412 114.595 43.5849 121.399 45.1924C126.041 26.4312 124.826 12.5186 118.128 8.51295C111.456 4.53345 98.9061 10.6388 85.7233 23.923C90.7048 29.5415 95.3218 35.4584 99.5642 41.6789V41.6737ZM48.6456 149.45C45.7954 149.502 42.9756 148.769 40.5 147.298C30.294 141.219 28.2639 123.788 34.9363 99.4655L35.8324 96.1929L39.0218 97.0097C46.8281 99.0571 55.4243 100.471 64.5722 101.267L66.1567 101.429L67.0528 102.764C71.9584 110.126 77.4158 117.054 83.3996 123.489L85.6929 125.919L83.3996 128.348C70.6118 141.983 58.2441 149.455 48.6456 149.455V149.45ZM40.6063 104.592C35.964 123.353 37.179 137.265 43.8767 141.271C50.5491 145.198 63.0737 139.145 76.2817 125.861C71.3002 120.243 66.6579 114.326 62.4409 108.079C55.0851 107.424 47.8052 106.257 40.6063 104.592ZM81 108.98C75.4363 108.98 69.741 108.734 64.0204 108.241L62.4358 108.105L61.5144 106.744C58.2998 101.942 55.2369 97.0097 52.4171 91.9358C49.5669 86.862 46.9597 81.6834 44.5348 76.3896L43.8514 74.8921L44.5348 73.3945C46.9597 68.106 49.572 62.9221 52.4171 57.8483C55.2116 52.8582 58.2694 47.8681 61.5144 43.0404L62.4358 41.6789L64.0204 41.5428C75.33 40.5584 86.6953 40.5584 97.9796 41.5428L99.5642 41.6789L100.486 43.0404C106.945 52.6383 112.641 62.8122 117.465 73.3945L118.149 74.8921L117.465 76.3896C112.641 86.9719 106.971 97.1458 100.486 106.744L99.5642 108.105L97.9796 108.241C92.2843 108.734 86.5637 108.98 81 108.98ZM66.1821 101.398C76.1501 102.188 85.8499 102.188 95.8432 101.398C101.407 92.9726 106.363 84.1078 110.661 74.8868C106.388 65.6711 101.432 56.8063 95.8179 48.376C85.9562 47.5854 76.0438 47.5854 66.1821 48.376C60.5677 56.801 55.6065 65.6659 51.3388 74.8868C55.6369 84.1025 60.5931 92.9674 66.1821 101.398Z" fill="black"/>
</svg>
